<?xml version="1.0" standalone="no"?>
<!DOCTYPE svg PUBLIC "-//W3C//DTD SVG 20010904//EN"
 "http://www.w3.org/TR/2001/REC-SVG-20010904/DTD/svg10.dtd">
<svg version="1.0" xmlns="http://www.w3.org/2000/svg"
 width="517.000000pt" height="443.000000pt" viewBox="0 0 517.000000 443.000000"
 preserveAspectRatio="xMidYMid meet">
<metadata>
Created by potrace 1.16, written by Peter Selinger 2001-2019
</metadata>
<g transform="translate(0.000000,443.000000) scale(0.100000,-0.100000)"
fill="#000000" stroke="none">
<path d="M1191 4171 c-61 -22 -145 -106 -178 -177 -14 -31 -34 -88 -44 -128
-11 -39 -28 -102 -38 -141 -92 -345 -160 -600 -235 -890 -70 -265 -113 -356
-228 -478 -38 -39 -68 -72 -68 -74 0 -2 134 -2 298 0 278 3 301 5 359 26 102
37 171 121 205 246 11 38 29 113 42 165 56 234 139 569 152 615 12 45 73 289
110 440 19 76 34 115 45 115 16 0 27 -39 195 -710 90 -360 174 -677 186 -704
33 -72 102 -138 173 -167 59 -24 65 -24 395 -24 370 0 405 5 487 64 89 64 111
117 198 476 30 127 62 255 70 285 9 30 22 84 31 120 40 166 53 220 69 285 9
39 23 90 30 115 7 25 18 70 25 100 16 73 51 170 61 170 9 0 42 -97 63 -185 41
-171 286 -1138 301 -1187 9 -32 36 -84 60 -117 50 -68 115 -106 211 -121 74
-12 584 -13 584 -1 0 5 -15 20 -34 34 -36 28 -132 151 -161 206 -25 49 -53
133 -80 236 -13 50 -35 133 -49 185 -13 52 -41 158 -61 235 -20 77 -46 174
-57 215 -10 41 -30 116 -43 165 -99 377 -107 404 -138 457 -36 62 -93 116
-152 144 -50 24 -50 24 -437 24 -387 0 -388 0 -440 -24 -55 -24 -120 -85 -156
-146 -24 -41 -48 -107 -73 -208 -10 -39 -27 -105 -38 -145 -31 -116 -71 -267
-91 -342 -10 -38 -30 -115 -45 -170 -33 -124 -61 -231 -81 -310 -8 -33 -21
-77 -28 -98 l-13 -39 -11 29 c-7 15 -18 55 -26 88 -13 57 -55 217 -153 590
-25 94 -53 202 -63 240 -45 175 -83 303 -101 342 -31 64 -107 143 -164 169
-50 24 -51 24 -435 23 -329 -1 -391 -4 -429 -18z"/>
<path d="M308 1879 c-17 -9 -18 -34 -18 -295 l0 -285 53 3 52 3 5 168 5 168
44 -73 c154 -254 160 -262 203 -266 l36 -3 102 166 c56 91 106 162 111 159 5
-3 9 -11 8 -17 -1 -7 -1 -79 0 -160 l1 -148 53 3 52 3 3 274 c2 244 1 276 -14
293 -17 18 -40 23 -68 12 -8 -3 -57 -73 -108 -155 -157 -253 -163 -262 -175
-266 -6 -2 -37 38 -69 89 -32 51 -73 118 -92 148 -20 30 -51 80 -70 110 -51
80 -73 93 -114 69z"/>
<path d="M2640 1870 c-19 -19 -20 -33 -20 -295 l0 -276 58 3 57 3 3 169 2 168
23 -33 c13 -19 47 -74 77 -124 100 -164 112 -180 152 -183 l36 -3 102 165 c56
91 106 163 111 160 5 -3 9 -77 9 -165 l0 -159 55 0 55 0 0 278 c0 258 -1 280
-18 295 -22 20 -52 22 -74 5 -8 -7 -55 -77 -104 -156 -49 -78 -105 -168 -124
-199 -20 -31 -41 -58 -47 -60 -6 -2 -66 85 -134 194 -68 109 -132 206 -141
215 -24 24 -53 23 -78 -2z"/>
<path d="M1360 1871 c-89 -27 -176 -106 -198 -179 -7 -24 -12 -110 -12 -216
l0 -177 53 3 52 3 3 68 3 67 199 0 199 0 3 -67 3 -68 55 0 55 0 3 264 c2 224
0 268 -13 287 -15 24 -17 24 -198 23 -100 0 -193 -4 -207 -8z m300 -206 l0
-115 -200 0 -200 0 0 54 c0 70 28 112 99 149 51 25 63 27 178 27 l123 0 0
-115z"/>
<path d="M1901 1833 c23 -27 83 -90 131 -142 49 -52 87 -98 86 -102 -2 -4 -49
-56 -104 -116 -56 -59 -114 -123 -129 -140 l-27 -33 74 0 73 0 98 102 97 103
98 -103 97 -103 73 3 72 3 -129 140 c-72 77 -130 143 -131 146 0 3 58 68 130
145 l129 139 -72 3 -72 4 -98 -104 -98 -103 -97 103 -97 103 -74 -1 -74 0 44
-47z"/>
<path d="M3700 1871 c-91 -28 -177 -107 -199 -183 -11 -35 -16 -196 -12 -366
1 -21 5 -23 54 -20 l52 3 3 68 3 67 199 0 200 0 0 -70 0 -70 60 0 60 0 0 268
c0 226 -2 271 -16 290 -15 21 -20 22 -197 21 -100 0 -193 -4 -207 -8z m300
-206 l0 -115 -200 0 -200 0 0 54 c0 70 28 112 99 149 51 25 63 27 178 27 l123
0 0 -115z"/>
<path d="M4266 1864 c-14 -13 -16 -54 -16 -290 l0 -274 55 0 55 0 2 238 3 237
200 0 200 0 3 -55 c3 -56 -9 -93 -37 -107 -9 -4 -83 -10 -166 -13 l-150 -5 0
-50 0 -50 45 -5 c35 -4 60 -17 113 -60 180 -145 152 -130 244 -130 46 0 83 2
83 4 0 3 -50 44 -112 92 -91 72 -108 89 -92 95 95 34 120 48 148 82 29 36 31
45 34 133 l4 94 -40 40 -40 40 -260 0 c-224 0 -263 -2 -276 -16z"/>
<path d="M1900 605 c0 -72 -1 -75 -19 -65 -41 21 -91 12 -127 -24 -29 -29 -34
-41 -34 -80 0 -58 17 -94 51 -112 33 -16 82 -18 110 -4 13 7 19 7 19 0 0 -5
14 -10 30 -10 l30 0 0 185 0 185 -30 0 -30 0 0 -75z"/>
<path d="M3730 535 c0 -159 11 -208 50 -220 31 -10 57 34 30 50 -6 4 -10 68
-10 161 l0 154 -35 0 -35 0 0 -145z"/>
<path d="M2183 498 c-34 -84 -65 -161 -69 -171 -6 -16 -2 -18 26 -15 28 2 35
9 45 38 12 34 13 35 73 38 l62 3 16 -41 c14 -34 21 -40 45 -40 16 0 29 4 29 9
0 5 -29 80 -64 168 -48 118 -69 159 -83 161 -15 2 -29 -24 -80 -150z"/>
<path d="M400 475 l0 -165 65 0 c87 0 132 19 151 65 17 42 11 75 -21 105 -21
20 -22 24 -9 50 10 20 12 35 5 53 -16 42 -48 57 -123 57 l-68 0 0 -165z"/>
<path d="M3903 608 c-14 -7 -23 -20 -23 -35 0 -16 -6 -23 -20 -23 -15 0 -20
-7 -20 -25 0 -18 5 -25 20 -25 18 0 20 -7 20 -74 0 -69 2 -76 26 -95 38 -30
80 -28 86 4 4 21 1 25 -17 25 -28 0 -35 17 -35 86 l0 54 40 0 c36 0 40 3 40
25 0 23 -4 25 -40 25 -39 0 -40 1 -40 35 0 38 -3 39 -37 23z"/>
<path d="M699 522 c-23 -21 -32 -39 -36 -73 -10 -90 44 -143 140 -137 47 3 52
5 55 28 3 24 1 25 -48 21 -38 -2 -56 1 -71 15 -31 28 -23 34 44 34 36 1 69 6
80 14 25 19 21 60 -9 95 -22 27 -32 31 -75 31 -39 0 -55 -5 -80 -28z"/>
<path d="M910 545 c0 -2 18 -50 41 -107 24 -61 38 -110 35 -124 -3 -12 -23
-37 -45 -57 -39 -35 -39 -36 -20 -53 19 -17 21 -17 47 3 49 36 67 71 169 331
3 8 -5 12 -25 12 -27 0 -31 -5 -58 -75 l-29 -75 -29 75 c-27 69 -31 75 -58 75
-15 0 -28 -2 -28 -5z"/>
<path d="M1215 528 c-80 -62 -63 -180 29 -212 135 -47 233 117 125 209 -40 33
-114 35 -154 3z"/>
<path d="M1460 430 l0 -120 30 0 30 0 0 83 c0 87 8 107 45 107 37 0 45 -20 45
-107 l0 -83 30 0 30 0 0 100 c0 87 -3 103 -20 120 -23 23 -98 28 -119 8 -11
-10 -14 -10 -18 0 -3 6 -16 12 -29 12 l-24 0 0 -120z"/>
<path d="M2474 516 c-29 -29 -34 -41 -34 -81 0 -88 50 -133 135 -122 l45 7 0
-65 0 -65 30 0 30 0 0 178 0 178 -86 2 c-86 2 -86 2 -120 -32z"/>
<path d="M2730 456 c0 -79 3 -97 21 -120 16 -20 29 -26 60 -26 22 0 49 5 60
10 13 7 19 7 19 0 0 -5 14 -10 30 -10 l30 0 0 120 0 120 -29 0 -29 0 -3 -85
c-4 -91 -12 -105 -56 -105 -32 0 -43 29 -43 114 l0 76 -30 0 -30 0 0 -94z"/>
<path d="M3017 543 c-11 -3 -16 -10 -13 -20 3 -8 6 -18 6 -22 0 -4 24 -7 52
-6 40 0 53 -4 56 -16 2 -12 -7 -18 -39 -22 -77 -10 -115 -81 -69 -127 28 -28
82 -30 111 -4 15 13 17 13 22 -1 8 -19 31 -19 47 0 10 12 10 21 2 38 -6 12
-12 51 -15 86 -4 80 -25 102 -96 100 -25 -1 -54 -3 -64 -6z"/>
<path d="M3295 540 c-44 -18 -70 -59 -70 -111 0 -42 5 -53 32 -81 29 -29 39
-33 90 -33 55 0 58 1 61 27 3 25 2 26 -36 21 -48 -6 -82 21 -82 65 0 49 22 67
79 65 47 -1 51 1 51 22 0 13 -7 26 -16 29 -22 8 -85 6 -109 -4z"/>
<path d="M3464 536 c-3 -9 -4 -54 -3 -102 4 -76 7 -88 28 -105 26 -22 100 -26
119 -7 9 9 12 9 12 0 0 -7 13 -12 30 -12 l30 0 0 120 0 120 -30 0 -30 0 0 -78
c0 -92 -12 -115 -55 -110 l-30 3 -5 90 c-5 89 -5 90 -33 93 -17 2 -29 -2 -33
-12z"/>
<path d="M4054 536 c-3 -9 -4 -54 -3 -102 4 -76 7 -88 28 -105 25 -21 81 -25
112 -9 13 7 19 7 19 0 0 -5 14 -10 30 -10 l30 0 0 120 0 120 -30 0 -30 0 0
-78 c0 -92 -12 -115 -55 -110 l-30 3 -5 90 c-5 89 -5 90 -33 93 -17 2 -29 -2
-33 -12z"/>
<path d="M4320 430 l0 -120 29 0 29 0 4 75 c4 80 10 93 48 97 25 3 38 19 39
51 1 24 -37 22 -66 -5 l-23 -21 0 21 c0 18 -6 22 -30 22 l-30 0 0 -120z"/>
<path d="M4534 516 c-30 -30 -34 -40 -34 -86 0 -46 4 -56 34 -86 33 -33 38
-35 98 -32 59 3 63 5 66 28 3 24 1 25 -48 21 -38 -2 -56 1 -71 15 -31 28 -23
34 44 34 49 0 68 4 80 18 25 27 21 60 -12 93 -24 24 -38 29 -76 29 -40 0 -52
-5 -81 -34z"/>
</g>
</svg>
